<?xml version="1.0" standalone="no"?><!DOCTYPE svg PUBLIC "-//W3C//DTD SVG 1.1//EN" "http://www.w3.org/Graphics/SVG/1.1/DTD/svg11.dtd"><svg t="1654049112266" class="icon" viewBox="0 0 1024 1024" version="1.1" xmlns="http://www.w3.org/2000/svg" p-id="3654" xmlns:xlink="http://www.w3.org/1999/xlink" width="200" height="200"><defs><style type="text/css">@font-face { font-family: feedback-iconfont; src: url("//at.alicdn.com/t/font_1031158_u69w8yhxdu.woff2?t=1630033759944") format("woff2"), url("//at.alicdn.com/t/font_1031158_u69w8yhxdu.woff?t=1630033759944") format("woff"), url("//at.alicdn.com/t/font_1031158_u69w8yhxdu.ttf?t=1630033759944") format("truetype"); }
</style></defs><path d="M511.3 96.2c56.2 0 110.7 11 161.9 32.7 49.5 21 94 51 132.2 89.2 38.2 38.2 68.2 82.7 89.2 132.2 21.7 51.3 32.7 105.7 32.7 161.9s-11 110.7-32.7 161.9c-21 49.5-51 94-89.2 132.2-38.2 38.2-82.7 68.2-132.2 89.2-51.3 21.7-105.7 32.7-161.9 32.7s-110.7-11-161.9-32.7c-49.5-21-94-51-132.2-89.2C179 768.2 149 723.7 128 674.1c-21.7-51.3-32.7-105.7-32.7-161.9s11-110.7 32.7-161.9c21-49.5 51-94 89.2-132.2s82.7-68.2 132.2-89.2c51.3-21.7 105.8-32.7 161.9-32.7m0-32c-247.4 0-448 200.6-448 448s200.6 448 448 448 448-200.6 448-448-200.5-448-448-448z" fill="#00365B" p-id="3655"></path><path d="M658.3 612.4c-2.7 0-5.5-0.7-8-2.1l-294-168.5c-4.8-2.7-7.8-7.8-8-13.3-0.2-5.5 2.5-10.8 7.1-13.9L661.2 209c7.3-4.9 16.7-5.3 24.3-0.9s12.1 12.6 11.5 21.4l-22.7 367.8c-0.3 5.5-3.5 10.5-8.4 13.1-2.4 1.4-5 2-7.6 2zM394.5 426.8l249.4 142.9 20-324-269.4 181.1z" fill="#00365B" p-id="3656"></path><path d="M364.4 427.6l294 168.5-305.7 205.6c-4.9 3.3-11.3-0.5-11-6.3l22.7-367.8z" fill="#7E4AFF" p-id="3657"></path><path d="M348.7 818.9c-3.9 0-7.9-1-11.5-3.1-7.7-4.4-12.1-12.6-11.6-21.4l22.7-367.8c0.3-5.5 3.5-10.5 8.4-13.1 4.9-2.6 10.7-2.5 15.5 0.2l294 168.5c4.8 2.8 7.8 7.8 8 13.3 0.2 5.5-2.5 10.8-7.1 13.9L361.6 815c-3.9 2.6-8.4 3.9-12.9 3.9z m30.1-364.6l-20 324 269.4-181.1-249.4-142.9z" fill="#00365B" p-id="3658"></path><path d="M511 512.5m-49.9 0a49.9 49.9 0 1 0 99.8 0 49.9 49.9 0 1 0-99.8 0Z" fill="#FFFFFF" p-id="3659"></path><path d="M510.9 578.5c-11.4 0-22.6-3-32.7-8.8-15.3-8.8-26.2-22.9-30.8-39.9s-2.3-34.8 6.4-50c18.1-31.5 58.4-42.5 90-24.4 31.5 18.1 42.5 58.4 24.4 90-8.8 15.3-22.9 26.2-39.9 30.8-5.7 1.5-11.6 2.3-17.4 2.3z m0.2-99.9c-3 0-6 0.4-8.9 1.2-8.7 2.4-16 8-20.5 15.9s-5.7 17-3.3 25.8c2.4 8.7 8 16 15.9 20.5s17 5.7 25.8 3.3c8.7-2.4 16-8 20.5-15.9 9.3-16.2 3.7-37-12.6-46.3-5.3-3-11.1-4.5-16.9-4.5z" fill="#00365B" p-id="3660"></path></svg>